<svg xmlns="http://www.w3.org/2000/svg" viewBox="0 0 32 32" fill="none">
  <rect width="32" height="32" rx="6" fill="#3b82f6"/>
  <path d="M10 8V6a2 2 0 0 1 2-2h8a2 2 0 0 1 2 2v2h2a2 2 0 0 1 2 2v16a2 2 0 0 1-2 2H8a2 2 0 0 1-2-2V10a2 2 0 0 1 2-2h2zm0 2H8v16h16V10h-2v2a2 2 0 0 1-2 2h-8a2 2 0 0 1-2-2V10zm2 0v2h8V10h-8z" fill="white"/>
  <circle cx="12" cy="16" r="1" fill="#3b82f6"/>
  <circle cx="16" cy="16" r="1" fill="#3b82f6"/>
  <circle cx="20" cy="16" r="1" fill="#3b82f6"/>
  <circle cx="12" cy="20" r="1" fill="#3b82f6"/>
  <circle cx="16" cy="20" r="1" fill="#3b82f6"/>
</svg>
